<?xml version="1.0"?>
<svg width="1920" height="812" xmlns="http://www.w3.org/2000/svg" xmlns:svg="http://www.w3.org/2000/svg">
 <g class="layer">
  <title>Layer 1</title>
  <path clip-rule="evenodd" d="m1920,0c0,0 0,620.72 0,714.12c-46.74,9.25 -102.48,-12.57 -151.05,-3.45c-48.13,9.05 -90.39,50.66 -140.51,57.97c-48.64,7.08 -103.44,-20.33 -153.77,-14.97c-49.02,5.21 -95.09,43.44 -145.54,46.95c-49.29,3.44 -101.41,-27.91 -151.91,-26.18c-49.46,1.7 -98.75,36.55 -149.22,36.55c-50.47,0 -99.75,-34.86 -149.21,-36.55c-50.49,-1.73 -102.61,29.61 -151.9,26.18c-50.44,-3.52 -96.52,-41.73 -145.54,-46.95c-50.33,-5.36 -105.12,22.05 -153.76,14.97c-50.13,-7.3 -92.39,-48.92 -140.52,-57.97c-49.82,-9.36 -107.19,13.45 -154.65,2.32c-49.02,-11.5 -86.31,-56.03 -132.42,-69.78c0,-33.04 0,-643.21 0,-643.21l1920,0z" fill="#F5F2EB" fill-rule="evenodd" id="svg_1" transform="rotate(180 960 405.5)"/>
 </g>
</svg>